<svg xmlns="http://www.w3.org/2000/svg" width="888" height="305pt" viewBox="0 0 666.42 305"><g class="graph"><path fill="#fff" stroke="transparent" d="M0 305V0h666.42v305H0z"/><g class="node" transform="translate(4 301)"><ellipse cx="357.33" cy="-279" fill="#20262c" stroke="#000" rx="139.98" ry="18"/><text x="357.33" y="-275.3" fill="#fff" font-family="Times,serif" font-size="14" text-anchor="middle">[&apos;Project&apos;] my Project name </text></g><g class="node" transform="translate(4 301)"><ellipse cx="204.33" cy="-192" fill="#576575" stroke="#000" rx="164.37" ry="18"/><text x="204.33" y="-188.3" fill="#fff" font-family="Times,serif" font-size="14" text-anchor="middle">[&apos;Collection&apos;] my collection name </text></g><g class="edge"><path fill="none" stroke="#000" d="M331.47 39.59c-23.96 13.31-57.79 32.11-83.93 46.63"/><path stroke="#000" d="m249.09 89.36-10.45 1.8 7.05-7.92 3.4 6.12z"/><text x="324.83" y="-231.8" font-family="Times,serif" font-size="14" text-anchor="middle" transform="translate(4 301)">collection</text></g><g class="node" transform="translate(4 301)"><ellipse cx="515.33" cy="-192" fill="#275497" stroke="#000" rx="124.28" ry="18"/><text x="515.33" y="-188.3" fill="#fff" font-family="Times,serif" font-size="14" text-anchor="middle">[&apos;Material&apos;] my material </text></g><g class="edge"><path fill="none" stroke="#000" d="M392.17 39.59c25.02 13.46 60.44 32.52 87.55 47.1"/><path stroke="#000" d="m481.42 83.63 7.15 7.82-10.46-1.65 3.31-6.17z"/><text x="476.83" y="-231.8" font-family="Times,serif" font-size="14" text-anchor="middle" transform="translate(4 301)">material</text></g><g class="node" transform="translate(4 301)"><ellipse cx="181.33" cy="-105" fill="#adafbd" stroke="#000" rx="181.17" ry="18"/><text x="181.33" y="-101.3" font-family="Times,serif" font-size="14" text-anchor="middle">[&apos;Experiment&apos;] my experiment name </text></g><g class="edge"><path fill="none" stroke="#000" d="M203.68 127.2c-3.18 11.75-7.46 27.56-11.08 40.96"/><path stroke="#000" d="m195.97 169.09-5.99 8.73-.77-10.56 6.76 1.83z"/><text x="235.33" y="-144.8" font-family="Times,serif" font-size="14" text-anchor="middle" transform="translate(4 301)">experiment</text></g><g class="node" transform="translate(4 301)"><ellipse cx="349.33" cy="-18" fill="#fc0" stroke="#000" rx="191.97" ry="18"/><text x="349.33" y="-14.3" font-family="Times,serif" font-size="14" text-anchor="middle">[&apos;Computation&apos;] my computation name </text></g><g class="edge"><path fill="none" stroke="#000" d="M218.53 213.79c26.57 13.45 64.02 32.4 92.7 46.91"/><path stroke="#000" d="m312.87 257.6 7.34 7.64-10.5-1.39 3.16-6.25z"/><text x="321.33" y="-57.8" font-family="Times,serif" font-size="14" text-anchor="middle" transform="translate(4 301)">computation</text></g><g class="node" transform="translate(4 301)"><ellipse cx="519.33" cy="-105" fill="none" stroke="#000" rx="139.18" ry="18"/><text x="519.33" y="-101.3" font-family="Times,serif" font-size="14" text-anchor="middle">[&apos;Property&apos;] modulus_shear </text></g><g class="edge"><path fill="none" stroke="#000" d="M520.14 127.2c.55 11.64 1.29 27.25 1.91 40.56"/><path stroke="#000" d="m525.55 167.67-3.02 10.15-3.97-9.82 6.99-.33z"/><text x="548.83" y="-144.8" font-family="Times,serif" font-size="14" text-anchor="middle" transform="translate(4 301)">property</text></g><g class="edge"><path fill="none" stroke="#000" d="M490.15 213.59c-26.85 13.43-64.87 32.43-94.01 47.01"/><path stroke="#000" d="m397.52 263.82-10.51 1.34 7.38-7.6 3.13 6.26z"/><text x="490.33" y="-57.8" font-family="Times,serif" font-size="14" text-anchor="middle" transform="translate(4 301)">computation</text></g></g></svg>